<?xml version="1.0" standalone="no"?>
<!DOCTYPE svg PUBLIC "-//W3C//DTD SVG 20010904//EN"
 "http://www.w3.org/TR/2001/REC-SVG-20010904/DTD/svg10.dtd">
<svg version="1.0" xmlns="http://www.w3.org/2000/svg"
 width="1192.000000pt" height="1192.000000pt" viewBox="0 0 1192.000000 1192.000000"
 preserveAspectRatio="xMidYMid meet">
<metadata>
Created by potrace 1.14, written by Peter Selinger 2001-2017
</metadata>
<g transform="translate(0.000000,1192.000000) scale(0.100000,-0.100000)"
fill="#000000" stroke="none">
<path d="M3451 7659 c-197 -38 -355 -187 -415 -388 -33 -112 -16 -307 35 -401
71 -129 187 -220 339 -265 66 -19 248 -16 320 5 85 26 199 107 265 190 39 48
83 156 100 243 16 82 16 92 0 175 -9 48 -21 91 -26 97 -5 5 -9 15 -9 23 0 24
-66 125 -112 171 -46 48 -127 103 -168 116 -14 4 -29 11 -35 15 -15 11 -146
30 -202 29 -26 -1 -68 -5 -92 -10z"/>
<path d="M8232 7659 c-180 -30 -341 -177 -408 -374 -24 -69 -24 -251 0 -320
62 -182 190 -308 365 -359 73 -21 241 -21 307 0 144 47 274 153 327 269 16 33
32 68 37 77 19 35 31 185 20 255 -29 184 -136 333 -295 407 -22 10 -48 23 -57
27 -52 25 -198 34 -296 18z"/>
<path d="M5808 7355 c-3 -3 -34 -10 -69 -15 -91 -14 -226 -55 -289 -87 -14 -7
-28 -13 -32 -13 -4 0 -42 -21 -85 -47 -206 -124 -356 -285 -458 -491 -19 -39
-35 -78 -35 -86 0 -8 -4 -17 -8 -20 -5 -3 -16 -31 -25 -63 -41 -141 -87 -305
-87 -313 0 -4 10 -10 23 -13 86 -21 238 -65 244 -70 3 -4 14 -7 23 -7 21 0
158 -71 214 -110 187 -132 344 -386 375 -606 11 -76 -1 -123 -70 -272 -33 -73
-133 -249 -148 -262 -3 -3 -24 -27 -45 -55 -55 -70 -189 -201 -261 -257 -56
-42 -239 -158 -251 -158 -3 0 -24 -8 -47 -19 -199 -88 -346 -115 -587 -108
-175 5 -204 10 -372 63 -346 110 -639 362 -823 708 -20 39 -46 93 -56 120 -11
28 -24 60 -29 71 -12 28 -38 120 -51 180 -10 48 -13 68 -25 143 l-5 32 -259 0
-259 0 6 -57 c10 -109 24 -186 62 -343 12 -49 26 -87 47 -137 8 -17 14 -36 14
-42 0 -6 4 -19 9 -29 5 -9 33 -66 61 -127 64 -134 193 -334 265 -411 5 -6 35
-39 65 -73 91 -104 287 -266 416 -344 75 -45 246 -131 299 -150 276 -99 457
-133 705 -131 145 1 436 42 478 68 7 4 21 4 32 1 15 -5 20 -15 20 -44 0 -21 7
-60 15 -87 9 -27 21 -65 27 -84 10 -32 32 -88 60 -150 14 -31 80 -143 87 -150
4 -3 26 -31 49 -62 166 -217 465 -394 747 -440 187 -30 507 -3 607 52 10 6 24
10 31 10 8 0 57 22 109 48 233 117 421 300 534 518 58 113 124 312 124 376 0
16 5 19 23 15 12 -3 45 -11 72 -17 28 -6 64 -15 80 -20 151 -45 529 -44 730 1
114 26 284 77 299 91 6 4 16 8 24 8 16 0 206 92 210 102 2 5 9 8 15 8 7 0 56
29 110 65 377 248 665 625 810 1060 44 134 75 273 93 423 l7 52 -281 0 -281 0
-6 -37 c-3 -21 -8 -49 -11 -63 -3 -14 -10 -52 -16 -85 -5 -33 -14 -64 -18 -70
-5 -5 -11 -27 -15 -48 -4 -20 -11 -40 -16 -43 -5 -3 -9 -12 -9 -21 0 -8 -16
-49 -35 -90 -19 -41 -35 -76 -35 -78 0 -20 -137 -217 -219 -314 -142 -168
-399 -337 -631 -414 -135 -45 -191 -52 -400 -52 -230 0 -330 17 -477 81 -17 8
-37 14 -45 14 -8 0 -18 4 -23 9 -6 5 -50 30 -100 56 -104 56 -246 158 -325
236 -215 211 -411 561 -394 707 18 161 136 388 266 507 122 114 209 160 398
215 41 12 86 25 100 30 14 5 44 14 68 20 33 9 42 15 38 28 -8 28 -24 92 -46
187 -40 164 -82 270 -159 400 -40 68 -34 60 -99 140 -63 78 -97 112 -185 183
-69 56 -224 152 -247 152 -6 0 -18 4 -28 10 -108 59 -308 100 -489 100 -66 0
-122 -2 -125 -5z m292 -524 c131 -37 252 -109 318 -187 49 -59 51 -61 74 -100
l21 -36 -24 -19 c-13 -10 -33 -22 -44 -25 -25 -8 -133 -83 -200 -138 -100 -83
-266 -277 -288 -339 -8 -21 -27 -19 -38 4 -4 8 -21 43 -39 79 -42 85 -125 194
-207 269 -65 61 -212 165 -266 188 -34 15 -30 27 43 106 79 86 203 162 324
197 86 25 241 26 326 1z m-115 -2093 c30 -60 117 -191 170 -257 25 -31 140
-162 157 -178 54 -53 215 -187 266 -222 l62 -43 0 -63 c0 -81 -34 -213 -75
-290 -55 -104 -152 -209 -255 -274 -43 -28 -82 -51 -85 -51 -4 0 -21 -6 -38
-14 -105 -48 -298 -62 -408 -30 -150 43 -270 126 -366 254 -88 118 -131 235
-140 377 -5 95 -4 103 13 110 74 27 384 314 474 438 24 33 47 62 50 65 15 11
92 138 117 193 10 20 21 37 25 37 4 0 19 -24 33 -52z"/>
</g>
</svg>
